<svg width="28" height="32" viewBox="0 0 28 32" fill="none" xmlns="http://www.w3.org/2000/svg">
<path d="M24.3438 0H3.65625C2.10544 0 0.84375 1.26169 0.84375 2.8125V29.1875C0.84375 30.7383 2.10544 32 3.65625 32H24.3438C25.8946 32 27.1562 30.7383 27.1562 29.1875V2.8125C27.1562 1.26169 25.8946 0 24.3438 0ZM3.65625 1.875H24.3438C24.8607 1.875 25.2812 2.29556 25.2812 2.8125V7.5625H2.71875V2.8125C2.71875 2.29556 3.13931 1.875 3.65625 1.875ZM24.3438 30.125H3.65625C3.13931 30.125 2.71875 29.7044 2.71875 29.1875V9.4375H25.2812V29.1875C25.2812 29.7044 24.8607 30.125 24.3438 30.125Z" fill="black"/>
<path d="M14.0312 11.3125C9.89575 11.3125 6.53125 14.677 6.53125 18.8125C6.53125 22.948 9.89575 26.3125 14.0312 26.3125C18.1667 26.3125 21.5312 22.948 21.5312 18.8125C21.5312 14.677 18.1667 11.3125 14.0312 11.3125ZM14.0312 13.1875C16.8073 13.1875 19.1198 15.2091 19.5748 17.8573C19.5746 17.8633 19.5739 17.8691 19.5739 17.875C19.5739 19.0854 18.0195 19.6234 17.3472 18.5355C16.8142 17.6731 15.5693 17.6745 15.0374 18.5354C14.5522 19.3201 13.5127 19.3227 13.0261 18.5354C12.4932 17.6731 11.2483 17.6746 10.7164 18.5354C10.0447 19.6218 8.48862 19.0874 8.48862 17.8751C8.48862 17.8691 8.48781 17.8633 8.48775 17.8574C8.94269 15.2091 11.2552 13.1875 14.0312 13.1875ZM14.0312 24.4375C11.6511 24.4375 9.61156 22.9514 8.7915 20.8584C9.86819 21.1967 11.0495 20.9219 11.8713 20.0839C13.068 21.3044 14.9958 21.3038 16.1922 20.0839C17.0153 20.9234 18.1965 21.196 19.2711 20.8584C18.4509 22.9514 16.4114 24.4375 14.0312 24.4375Z" fill="black"/>
<path d="M22.4688 5.6875C22.9865 5.6875 23.4062 5.26777 23.4062 4.75C23.4062 4.23223 22.9865 3.8125 22.4688 3.8125C21.951 3.8125 21.5312 4.23223 21.5312 4.75C21.5312 5.26777 21.951 5.6875 22.4688 5.6875Z" fill="black"/>
<path d="M18.7188 5.6875C19.2365 5.6875 19.6562 5.26777 19.6562 4.75C19.6562 4.23223 19.2365 3.8125 18.7188 3.8125C18.201 3.8125 17.7812 4.23223 17.7812 4.75C17.7812 5.26777 18.201 5.6875 18.7188 5.6875Z" fill="black"/>
<path d="M14.9688 5.6875C15.4865 5.6875 15.9062 5.26777 15.9062 4.75C15.9062 4.23223 15.4865 3.8125 14.9688 3.8125C14.451 3.8125 14.0312 4.23223 14.0312 4.75C14.0312 5.26777 14.451 5.6875 14.9688 5.6875Z" fill="black"/>
<path d="M5.59375 5.6875H8.375C8.89275 5.6875 9.3125 5.26775 9.3125 4.75C9.3125 4.23225 8.89275 3.8125 8.375 3.8125H5.59375C5.076 3.8125 4.65625 4.23225 4.65625 4.75C4.65625 5.26775 5.076 5.6875 5.59375 5.6875Z" fill="black"/>
<path d="M22.4375 26.3125H20.5625C20.0447 26.3125 19.625 26.7322 19.625 27.25C19.625 27.7678 20.0447 28.1875 20.5625 28.1875H22.4375C22.9553 28.1875 23.375 27.7678 23.375 27.25C23.375 26.7322 22.9553 26.3125 22.4375 26.3125Z" fill="black"/>
</svg>
