<svg width="32" height="33" viewBox="0 0 32 33" fill="none" xmlns="http://www.w3.org/2000/svg">
<g clip-path="url(#clip0_1277_585)">
<path d="M28.6328 8.57585C27.9701 8.90242 27.6927 9.71472 28.0133 10.3894C28.8893 12.2325 29.3333 14.2191 29.3333 16.2963C29.3333 23.7843 23.3519 29.8765 16 29.8765C8.64811 29.8765 2.66667 23.7843 2.66667 16.2963C2.66667 8.80826 8.64811 2.71605 16 2.71605C19.0466 2.71605 21.9085 3.72926 24.2773 5.64595C24.8519 6.1131 25.6921 6.01529 26.1507 5.42812C26.6094 4.84128 26.5133 3.98655 25.9365 3.52006C23.1322 1.24994 19.6032 0 16 0C7.17806 0 0 7.31099 0 16.2963C0 25.2816 7.17806 32.5926 16 32.5926C24.8219 32.5926 32 25.2816 32 16.2963C32 13.8064 31.4661 11.4202 30.4134 9.20678C30.0934 8.53042 29.2933 8.24861 28.6328 8.57585Z" fill="#3D5AF1"/>
<path d="M16.0001 5.43213C15.2641 5.43213 14.6667 6.04052 14.6667 6.79015V16.2963C14.6667 17.046 15.2641 17.6544 16.0001 17.6544H22.6667C23.4028 17.6544 24.0001 17.046 24.0001 16.2963C24.0001 15.5467 23.4028 14.9383 22.6667 14.9383H17.3334V6.79015C17.3334 6.04052 16.7361 5.43213 16.0001 5.43213Z" fill="#3D5AF1"/>
</g>
<defs>
<clipPath id="clip0_1277_585">
<rect width="32" height="32.5926" fill="white"/>
</clipPath>
</defs>
</svg>
